<svg width="262" height="191" viewBox="0 0 262 191" fill="none" xmlns="http://www.w3.org/2000/svg">
<rect x="0.5" y="67.5" width="261" height="56" rx="4.5" fill="url(#paint0_linear_2156_4299)"/>
<rect x="0.5" y="67.5" width="261" height="56" rx="4.5" stroke="white"/>
<path d="M44.1378 102.5V89.4091H46.9055V94.8104H52.5241V89.4091H55.2855V102.5H52.5241V97.0923H46.9055V102.5H44.1378ZM57.4263 102.5V92.6818H60.1493V102.5H57.4263ZM58.7942 91.4162C58.3894 91.4162 58.0421 91.282 57.7523 91.0135C57.4668 90.7408 57.3241 90.4148 57.3241 90.0355C57.3241 89.6605 57.4668 89.3388 57.7523 89.0703C58.0421 88.7976 58.3894 88.6612 58.7942 88.6612C59.1991 88.6612 59.5442 88.7976 59.8297 89.0703C60.1195 89.3388 60.2644 89.6605 60.2644 90.0355C60.2644 90.4148 60.1195 90.7408 59.8297 91.0135C59.5442 91.282 59.1991 91.4162 58.7942 91.4162ZM62.2406 102.5V92.6818H64.8805V94.3949H64.9828C65.1618 93.7855 65.4622 93.3253 65.8841 93.0142C66.306 92.6989 66.7918 92.5412 67.3415 92.5412C67.4778 92.5412 67.6249 92.5497 67.7825 92.5668C67.9402 92.5838 68.0787 92.6072 68.198 92.6371V95.0533C68.0702 95.0149 67.8933 94.9808 67.6675 94.951C67.4416 94.9212 67.235 94.9062 67.0475 94.9062C66.6469 94.9062 66.2889 94.9936 65.9736 95.1683C65.6625 95.3388 65.4153 95.5774 65.2321 95.8842C65.0531 96.1911 64.9636 96.5447 64.9636 96.9453V102.5H62.2406ZM73.5333 102.692C72.5233 102.692 71.654 102.487 70.9253 102.078C70.2009 101.665 69.6426 101.081 69.2506 100.327C68.8586 99.5682 68.6625 98.6712 68.6625 97.6357C68.6625 96.6257 68.8586 95.7393 69.2506 94.9766C69.6426 94.2138 70.1945 93.6193 70.9061 93.1932C71.622 92.767 72.4615 92.554 73.4246 92.554C74.0723 92.554 74.6753 92.6584 75.2336 92.8672C75.7961 93.0717 76.2861 93.3807 76.7037 93.794C77.1256 94.2074 77.4537 94.7273 77.6881 95.3537C77.9225 95.9759 78.0397 96.7045 78.0397 97.5398V98.2876H69.7492V96.6001H75.4764C75.4764 96.2081 75.3912 95.8608 75.2208 95.5582C75.0503 95.2557 74.8138 95.0192 74.5112 94.8487C74.213 94.674 73.8657 94.5866 73.4693 94.5866C73.056 94.5866 72.6895 94.6825 72.3699 94.8743C72.0546 95.0618 71.8074 95.3153 71.6284 95.6349C71.4495 95.9503 71.3578 96.3018 71.3536 96.6896V98.294C71.3536 98.7798 71.4431 99.1996 71.622 99.5533C71.8053 99.907 72.0631 100.18 72.3955 100.371C72.7279 100.563 73.122 100.659 73.578 100.659C73.8806 100.659 74.1576 100.616 74.409 100.531C74.6604 100.446 74.8756 100.318 75.0546 100.148C75.2336 99.9773 75.3699 99.7685 75.4637 99.5213L77.9821 99.6875C77.8543 100.293 77.5922 100.821 77.1959 101.273C76.8039 101.72 76.2968 102.07 75.6746 102.321C75.0567 102.568 74.3429 102.692 73.5333 102.692ZM83.3552 91.6911V89.4091H94.1066V91.6911H90.0988V102.5H87.363V91.6911H83.3552ZM98.7484 102.692C97.7555 102.692 96.8968 102.481 96.1724 102.059C95.4522 101.633 94.8961 101.04 94.504 100.282C94.112 99.5192 93.916 98.6349 93.916 97.6293C93.916 96.6151 94.112 95.7287 94.504 94.9702C94.8961 94.2074 95.4522 93.6151 96.1724 93.1932C96.8968 92.767 97.7555 92.554 98.7484 92.554C99.7412 92.554 100.598 92.767 101.318 93.1932C102.042 93.6151 102.601 94.2074 102.993 94.9702C103.385 95.7287 103.581 96.6151 103.581 97.6293C103.581 98.6349 103.385 99.5192 102.993 100.282C102.601 101.04 102.042 101.633 101.318 102.059C100.598 102.481 99.7412 102.692 98.7484 102.692ZM98.7611 100.582C99.2128 100.582 99.59 100.455 99.8925 100.199C100.195 99.9389 100.423 99.5852 100.576 99.1378C100.734 98.6903 100.813 98.1811 100.813 97.6101C100.813 97.0391 100.734 96.5298 100.576 96.0824C100.423 95.6349 100.195 95.2812 99.8925 95.0213C99.59 94.7614 99.2128 94.6314 98.7611 94.6314C98.3052 94.6314 97.9216 94.7614 97.6106 95.0213C97.3037 95.2812 97.0715 95.6349 96.9138 96.0824C96.7604 96.5298 96.6837 97.0391 96.6837 97.6101C96.6837 98.1811 96.7604 98.6903 96.9138 99.1378C97.0715 99.5852 97.3037 99.9389 97.6106 100.199C97.9216 100.455 98.3052 100.582 98.7611 100.582ZM105.261 106.182V92.6818H107.946V94.331H108.067C108.187 94.0668 108.359 93.7983 108.585 93.5256C108.815 93.2486 109.114 93.0185 109.48 92.8352C109.851 92.6477 110.311 92.554 110.861 92.554C111.577 92.554 112.237 92.7415 112.842 93.1165C113.447 93.4872 113.931 94.0476 114.293 94.7976C114.656 95.5433 114.837 96.4787 114.837 97.6037C114.837 98.6989 114.66 99.6236 114.306 100.378C113.957 101.128 113.479 101.697 112.874 102.085C112.273 102.468 111.6 102.66 110.854 102.66C110.326 102.66 109.876 102.572 109.506 102.398C109.139 102.223 108.839 102.004 108.604 101.739C108.37 101.471 108.191 101.2 108.067 100.928H107.984V106.182H105.261ZM107.927 97.5909C107.927 98.1747 108.008 98.6839 108.17 99.1186C108.332 99.5533 108.566 99.892 108.873 100.135C109.18 100.374 109.553 100.493 109.991 100.493C110.435 100.493 110.81 100.371 111.116 100.129C111.423 99.8814 111.656 99.5405 111.813 99.1058C111.975 98.6669 112.056 98.1619 112.056 97.5909C112.056 97.0241 111.977 96.5256 111.82 96.0952C111.662 95.6648 111.43 95.3281 111.123 95.0852C110.816 94.8423 110.439 94.7209 109.991 94.7209C109.548 94.7209 109.173 94.8381 108.866 95.0724C108.564 95.3068 108.332 95.6392 108.17 96.0696C108.008 96.5 107.927 97.0071 107.927 97.5909ZM125.33 102.5H120.689V89.4091H125.368C126.685 89.4091 127.818 89.6712 128.769 90.1953C129.719 90.7152 130.45 91.4631 130.961 92.4389C131.477 93.4148 131.735 94.5824 131.735 95.9418C131.735 97.3054 131.477 98.4773 130.961 99.4574C130.45 100.437 129.715 101.19 128.756 101.714C127.801 102.238 126.659 102.5 125.33 102.5ZM123.457 100.129H125.215C126.033 100.129 126.721 99.9837 127.279 99.6939C127.842 99.3999 128.264 98.946 128.545 98.3324C128.83 97.7145 128.973 96.9176 128.973 95.9418C128.973 94.9744 128.83 94.1839 128.545 93.5703C128.264 92.9567 127.844 92.505 127.286 92.2152C126.727 91.9254 126.039 91.7805 125.221 91.7805H123.457V100.129ZM138.118 102.692C137.108 102.692 136.239 102.487 135.51 102.078C134.786 101.665 134.227 101.081 133.835 100.327C133.443 99.5682 133.247 98.6712 133.247 97.6357C133.247 96.6257 133.443 95.7393 133.835 94.9766C134.227 94.2138 134.779 93.6193 135.491 93.1932C136.207 92.767 137.046 92.554 138.009 92.554C138.657 92.554 139.26 92.6584 139.818 92.8672C140.381 93.0717 140.871 93.3807 141.289 93.794C141.71 94.2074 142.039 94.7273 142.273 95.3537C142.507 95.9759 142.625 96.7045 142.625 97.5398V98.2876H134.334V96.6001H140.061C140.061 96.2081 139.976 95.8608 139.806 95.5582C139.635 95.2557 139.399 95.0192 139.096 94.8487C138.798 94.674 138.45 94.5866 138.054 94.5866C137.641 94.5866 137.274 94.6825 136.955 94.8743C136.639 95.0618 136.392 95.3153 136.213 95.6349C136.034 95.9503 135.943 96.3018 135.938 96.6896V98.294C135.938 98.7798 136.028 99.1996 136.207 99.5533C136.39 99.907 136.648 100.18 136.98 100.371C137.313 100.563 137.707 100.659 138.163 100.659C138.465 100.659 138.742 100.616 138.994 100.531C139.245 100.446 139.46 100.318 139.639 100.148C139.818 99.9773 139.955 99.7685 140.049 99.5213L142.567 99.6875C142.439 100.293 142.177 100.821 141.781 101.273C141.389 101.72 140.882 102.07 140.259 102.321C139.642 102.568 138.928 102.692 138.118 102.692ZM153.201 92.6818L149.769 102.5H146.701L143.268 92.6818H146.144L148.183 99.7067H148.286L150.318 92.6818H153.201ZM158.663 102.692C157.653 102.692 156.783 102.487 156.055 102.078C155.33 101.665 154.772 101.081 154.38 100.327C153.988 99.5682 153.792 98.6712 153.792 97.6357C153.792 96.6257 153.988 95.7393 154.38 94.9766C154.772 94.2138 155.324 93.6193 156.036 93.1932C156.751 92.767 157.591 92.554 158.554 92.554C159.202 92.554 159.805 92.6584 160.363 92.8672C160.926 93.0717 161.416 93.3807 161.833 93.794C162.255 94.2074 162.583 94.7273 162.818 95.3537C163.052 95.9759 163.169 96.7045 163.169 97.5398V98.2876H154.879V96.6001H160.606C160.606 96.2081 160.521 95.8608 160.35 95.5582C160.18 95.2557 159.943 95.0192 159.641 94.8487C159.342 94.674 158.995 94.5866 158.599 94.5866C158.185 94.5866 157.819 94.6825 157.499 94.8743C157.184 95.0618 156.937 95.3153 156.758 95.6349C156.579 95.9503 156.487 96.3018 156.483 96.6896V98.294C156.483 98.7798 156.573 99.1996 156.751 99.5533C156.935 99.907 157.193 100.18 157.525 100.371C157.857 100.563 158.251 100.659 158.707 100.659C159.01 100.659 159.287 100.616 159.538 100.531C159.79 100.446 160.005 100.318 160.184 100.148C160.363 99.9773 160.499 99.7685 160.593 99.5213L163.112 99.6875C162.984 100.293 162.722 100.821 162.325 101.273C161.933 101.72 161.426 102.07 160.804 102.321C160.186 102.568 159.472 102.692 158.663 102.692ZM167.579 89.4091V102.5H164.856V89.4091H167.579ZM174.106 102.692C173.114 102.692 172.255 102.481 171.53 102.059C170.81 101.633 170.254 101.04 169.862 100.282C169.47 99.5192 169.274 98.6349 169.274 97.6293C169.274 96.6151 169.47 95.7287 169.862 94.9702C170.254 94.2074 170.81 93.6151 171.53 93.1932C172.255 92.767 173.114 92.554 174.106 92.554C175.099 92.554 175.956 92.767 176.676 93.1932C177.401 93.6151 177.959 94.2074 178.351 94.9702C178.743 95.7287 178.939 96.6151 178.939 97.6293C178.939 98.6349 178.743 99.5192 178.351 100.282C177.959 101.04 177.401 101.633 176.676 102.059C175.956 102.481 175.099 102.692 174.106 102.692ZM174.119 100.582C174.571 100.582 174.948 100.455 175.251 100.199C175.553 99.9389 175.781 99.5852 175.935 99.1378C176.092 98.6903 176.171 98.1811 176.171 97.6101C176.171 97.0391 176.092 96.5298 175.935 96.0824C175.781 95.6349 175.553 95.2812 175.251 95.0213C174.948 94.7614 174.571 94.6314 174.119 94.6314C173.663 94.6314 173.28 94.7614 172.969 95.0213C172.662 95.2812 172.43 95.6349 172.272 96.0824C172.119 96.5298 172.042 97.0391 172.042 97.6101C172.042 98.1811 172.119 98.6903 172.272 99.1378C172.43 99.5852 172.662 99.9389 172.969 100.199C173.28 100.455 173.663 100.582 174.119 100.582ZM180.619 106.182V92.6818H183.304V94.331H183.426C183.545 94.0668 183.717 93.7983 183.943 93.5256C184.173 93.2486 184.472 93.0185 184.838 92.8352C185.209 92.6477 185.669 92.554 186.219 92.554C186.935 92.554 187.595 92.7415 188.2 93.1165C188.806 93.4872 189.289 94.0476 189.651 94.7976C190.014 95.5433 190.195 96.4787 190.195 97.6037C190.195 98.6989 190.018 99.6236 189.664 100.378C189.315 101.128 188.837 101.697 188.232 102.085C187.632 102.468 186.958 102.66 186.212 102.66C185.684 102.66 185.235 102.572 184.864 102.398C184.497 102.223 184.197 102.004 183.962 101.739C183.728 101.471 183.549 101.2 183.426 100.928H183.342V106.182H180.619ZM183.285 97.5909C183.285 98.1747 183.366 98.6839 183.528 99.1186C183.69 99.5533 183.924 99.892 184.231 100.135C184.538 100.374 184.911 100.493 185.35 100.493C185.793 100.493 186.168 100.371 186.475 100.129C186.781 99.8814 187.014 99.5405 187.171 99.1058C187.333 98.6669 187.414 98.1619 187.414 97.5909C187.414 97.0241 187.335 96.5256 187.178 96.0952C187.02 95.6648 186.788 95.3281 186.481 95.0852C186.174 94.8423 185.797 94.7209 185.35 94.7209C184.906 94.7209 184.531 94.8381 184.225 95.0724C183.922 95.3068 183.69 95.6392 183.528 96.0696C183.366 96.5 183.285 97.0071 183.285 97.5909ZM196.395 102.692C195.385 102.692 194.515 102.487 193.787 102.078C193.062 101.665 192.504 101.081 192.112 100.327C191.72 99.5682 191.524 98.6712 191.524 97.6357C191.524 96.6257 191.72 95.7393 192.112 94.9766C192.504 94.2138 193.056 93.6193 193.767 93.1932C194.483 92.767 195.323 92.554 196.286 92.554C196.934 92.554 197.537 92.6584 198.095 92.8672C198.657 93.0717 199.147 93.3807 199.565 93.794C199.987 94.2074 200.315 94.7273 200.549 95.3537C200.784 95.9759 200.901 96.7045 200.901 97.5398V98.2876H192.61V96.6001H198.338C198.338 96.2081 198.252 95.8608 198.082 95.5582C197.912 95.2557 197.675 95.0192 197.372 94.8487C197.074 94.674 196.727 94.5866 196.331 94.5866C195.917 94.5866 195.551 94.6825 195.231 94.8743C194.916 95.0618 194.669 95.3153 194.49 95.6349C194.311 95.9503 194.219 96.3018 194.215 96.6896V98.294C194.215 98.7798 194.304 99.1996 194.483 99.5533C194.667 99.907 194.924 100.18 195.257 100.371C195.589 100.563 195.983 100.659 196.439 100.659C196.742 100.659 197.019 100.616 197.27 100.531C197.522 100.446 197.737 100.318 197.916 100.148C198.095 99.9773 198.231 99.7685 198.325 99.5213L200.843 99.6875C200.716 100.293 200.453 100.821 200.057 101.273C199.665 101.72 199.158 102.07 198.536 102.321C197.918 102.568 197.204 102.692 196.395 102.692ZM202.588 102.5V92.6818H205.228V94.3949H205.33C205.509 93.7855 205.809 93.3253 206.231 93.0142C206.653 92.6989 207.139 92.5412 207.689 92.5412C207.825 92.5412 207.972 92.5497 208.13 92.5668C208.287 92.5838 208.426 92.6072 208.545 92.6371V95.0533C208.417 95.0149 208.241 94.9808 208.015 94.951C207.789 94.9212 207.582 94.9062 207.395 94.9062C206.994 94.9062 206.636 94.9936 206.321 95.1683C206.01 95.3388 205.763 95.5774 205.579 95.8842C205.4 96.1911 205.311 96.5447 205.311 96.9453V102.5H202.588ZM218.032 95.4815L215.539 95.6349C215.497 95.4219 215.405 95.2301 215.264 95.0597C215.124 94.8849 214.938 94.7464 214.708 94.6442C214.482 94.5376 214.212 94.4844 213.897 94.4844C213.475 94.4844 213.119 94.5739 212.829 94.7528C212.539 94.9276 212.394 95.1619 212.394 95.456C212.394 95.6903 212.488 95.8885 212.676 96.0504C212.863 96.2124 213.185 96.3423 213.641 96.4403L215.418 96.7983C216.372 96.9943 217.084 97.3097 217.553 97.7443C218.022 98.179 218.256 98.75 218.256 99.4574C218.256 100.101 218.066 100.665 217.687 101.151C217.312 101.637 216.796 102.016 216.14 102.289C215.488 102.558 214.736 102.692 213.884 102.692C212.584 102.692 211.549 102.421 210.777 101.88C210.01 101.335 209.561 100.593 209.428 99.6555L212.107 99.5149C212.188 99.9112 212.384 100.214 212.695 100.423C213.006 100.627 213.404 100.729 213.89 100.729C214.367 100.729 214.751 100.638 215.041 100.455C215.335 100.267 215.484 100.026 215.488 99.7322C215.484 99.4851 215.379 99.2827 215.175 99.125C214.97 98.9631 214.655 98.8395 214.229 98.7543L212.529 98.4155C211.57 98.2237 210.856 97.8913 210.387 97.4183C209.923 96.9453 209.691 96.3423 209.691 95.6094C209.691 94.9787 209.861 94.4354 210.202 93.9794C210.547 93.5234 211.031 93.1719 211.653 92.9247C212.279 92.6776 213.012 92.554 213.852 92.554C215.092 92.554 216.068 92.8161 216.779 93.3402C217.495 93.8643 217.913 94.5781 218.032 95.4815Z" fill="#FAFAFA"/>
<rect width="34.467" height="6.60908" rx="3.30454" transform="matrix(-0.601033 -0.799224 0.914216 -0.405227 91.7158 39.9995)" fill="url(#paint1_linear_2156_4299)"/>
<rect x="126.323" y="31.8086" width="31.8084" height="6.97684" rx="3.48842" transform="rotate(-90 126.323 31.8086)" fill="url(#paint2_linear_2156_4299)"/>
<rect width="34.8564" height="6.5509" rx="3.27545" transform="matrix(0.638227 -0.769848 0.898472 0.43903 162.323 36.814)" fill="url(#paint3_linear_2156_4299)"/>
<rect width="34.4666" height="6.60906" rx="3.30453" transform="matrix(-0.601039 0.79922 0.914219 0.405221 91.7158 151)" fill="url(#paint4_linear_2156_4299)"/>
<rect width="31.8078" height="6.97684" rx="3.48842" transform="matrix(0 1 1 0 126.323 159.191)" fill="url(#paint5_linear_2156_4299)"/>
<rect width="34.8561" height="6.55088" rx="3.27544" transform="matrix(0.638233 0.769843 0.898475 -0.439024 162.323 154.186)" fill="url(#paint6_linear_2156_4299)"/>
<defs>
<linearGradient id="paint0_linear_2156_4299" x1="262" y1="67" x2="238.319" y2="175.848" gradientUnits="userSpaceOnUse">
<stop stop-color="#FFC656"/>
<stop offset="1" stop-color="#F16063"/>
</linearGradient>
<linearGradient id="paint1_linear_2156_4299" x1="34.467" y1="0" x2="32.0223" y2="12.7494" gradientUnits="userSpaceOnUse">
<stop stop-color="#FFEF5E"/>
<stop offset="1" stop-color="#F7936F"/>
</linearGradient>
<linearGradient id="paint2_linear_2156_4299" x1="158.132" y1="31.8086" x2="155.211" y2="45.1218" gradientUnits="userSpaceOnUse">
<stop stop-color="#FFEF5E"/>
<stop offset="1" stop-color="#F7936F"/>
</linearGradient>
<linearGradient id="paint3_linear_2156_4299" x1="34.8564" y1="0" x2="32.4781" y2="12.6548" gradientUnits="userSpaceOnUse">
<stop stop-color="#FFEF5E"/>
<stop offset="1" stop-color="#F7936F"/>
</linearGradient>
<linearGradient id="paint4_linear_2156_4299" x1="34.4666" y1="0" x2="32.0219" y2="12.7493" gradientUnits="userSpaceOnUse">
<stop stop-color="#FFEF5E"/>
<stop offset="1" stop-color="#F7936F"/>
</linearGradient>
<linearGradient id="paint5_linear_2156_4299" x1="31.8078" y1="0" x2="28.8877" y2="13.3132" gradientUnits="userSpaceOnUse">
<stop stop-color="#FFEF5E"/>
<stop offset="1" stop-color="#F7936F"/>
</linearGradient>
<linearGradient id="paint6_linear_2156_4299" x1="34.8561" y1="0" x2="32.4777" y2="12.6548" gradientUnits="userSpaceOnUse">
<stop stop-color="#FFEF5E"/>
<stop offset="1" stop-color="#F7936F"/>
</linearGradient>
</defs>
</svg>
